<svg width="22" height="20" viewBox="0 0 22 20" fill="none" xmlns="http://www.w3.org/2000/svg">
<path d="M10.6436 1.12012C10.7559 0.774786 11.2441 0.774792 11.3564 1.12012L13.0996 6.48535C13.3173 7.1547 13.9416 7.60742 14.6455 7.60742H20.2861C20.6492 7.60749 20.8004 8.07254 20.5068 8.28613L15.9434 11.6016C15.3738 12.0154 15.135 12.7494 15.3525 13.4189L17.0957 18.7832C17.208 19.1287 16.8124 19.4157 16.5186 19.2021L11.9551 15.8867C11.3856 15.4731 10.6144 15.4731 10.0449 15.8867L5.48145 19.2021C5.18755 19.4157 4.79204 19.1287 4.9043 18.7832L6.64746 13.4189C6.86501 12.7494 6.62618 12.0154 6.05664 11.6016L1.49316 8.28613C1.19963 8.07254 1.35076 7.60749 1.71387 7.60742H7.35449C8.05837 7.60742 8.68275 7.1547 8.90039 6.48535L10.6436 1.12012Z" stroke="#FFC200" stroke-width="1.25"/>
</svg>
