<svg width="3" height="12" viewBox="0 0 3 12" fill="none" xmlns="http://www.w3.org/2000/svg">
<path d="M2.57324 1.27832C2.57324 1.99219 1.99219 2.57324 1.27832 2.57324C0.581055 2.57324 -2.53987e-08 1.99219 -5.66028e-08 1.27832C-8.63556e-08 0.597656 0.581055 -2.53987e-08 1.27832 -5.58772e-08C1.99219 -8.70813e-08 2.57324 0.597656 2.57324 1.27832Z" fill="#808080"/>
<path d="M2.57324 5.91016C2.57324 6.62402 1.99219 7.20508 1.27832 7.20508C0.581055 7.20508 -2.53987e-08 6.62402 -5.66028e-08 5.91016C-8.63556e-08 5.22949 0.581055 4.63184 1.27832 4.63184C1.99219 4.63184 2.57324 5.22949 2.57324 5.91016Z" fill="#808080"/>
<path d="M2.57324 10.542C2.57324 11.2559 1.99219 11.8369 1.27832 11.8369C0.581055 11.8369 -2.53987e-08 11.2559 -5.66028e-08 10.542C-8.63556e-08 9.86133 0.581055 9.26367 1.27832 9.26367C1.99219 9.26367 2.57324 9.86133 2.57324 10.542Z" fill="#808080"/>
</svg>
