<svg width="20" height="20" viewBox="0 0 20 20" fill="none" xmlns="http://www.w3.org/2000/svg">
<path d="M9.94999 16C10.3 16 10.596 15.879 10.838 15.637C11.08 15.395 11.2007 15.0993 11.2 14.75C11.1993 14.4007 11.0787 14.1047 10.838 13.862C10.5973 13.6193 10.3013 13.4987 9.94999 13.5C9.59866 13.5013 9.30299 13.6223 9.06299 13.863C8.82299 14.1037 8.702 14.3993 8.7 14.75C8.698 15.1007 8.81899 15.3967 9.06299 15.638C9.30699 15.8793 9.60266 16 9.94999 16ZM9.99999 20C8.61666 20 7.31666 19.7373 6.1 19.212C4.88333 18.6867 3.825 17.9743 2.925 17.075C2.025 16.1757 1.31267 15.1173 0.788001 13.9C0.263335 12.6827 0.000667932 11.3827 1.26582e-06 10C-0.0006654 8.61733 0.262001 7.31733 0.788001 6.1C1.314 4.88267 2.02633 3.82433 2.925 2.925C3.82367 2.02567 4.882 1.31333 6.1 0.788C7.318 0.262667 8.618 0 9.99999 0C11.382 0 12.682 0.262667 13.9 0.788C15.118 1.31333 16.1763 2.02567 17.075 2.925C17.9737 3.82433 18.6863 4.88267 19.213 6.1C19.7397 7.31733 20.002 8.61733 20 10C19.998 11.3827 19.7353 12.6827 19.212 13.9C18.6887 15.1173 17.9763 16.1757 17.075 17.075C16.1737 17.9743 15.1153 18.687 13.9 19.213C12.6847 19.739 11.3847 20.0013 9.99999 20ZM9.99999 18C12.2333 18 14.125 17.225 15.675 15.675C17.225 14.125 18 12.2333 18 10C18 7.76666 17.225 5.875 15.675 4.325C14.125 2.775 12.2333 2 9.99999 2C7.76666 2 5.875 2.775 4.325 4.325C2.775 5.875 2 7.76666 2 10C2 12.2333 2.775 14.125 4.325 15.675C5.875 17.225 7.76666 18 9.99999 18ZM10.1 5.7C10.5167 5.7 10.8793 5.83333 11.188 6.1C11.4967 6.36667 11.6507 6.7 11.65 7.1C11.65 7.46666 11.5377 7.79166 11.313 8.075C11.0883 8.35833 10.834 8.625 10.55 8.875C10.1667 9.20833 9.82933 9.575 9.53799 9.975C9.24666 10.375 9.10066 10.825 9.1 11.325C9.1 11.5583 9.18766 11.7543 9.36299 11.913C9.53833 12.0717 9.74233 12.1507 9.97499 12.15C10.225 12.15 10.4377 12.0667 10.613 11.9C10.7883 11.7333 10.9007 11.525 10.95 11.275C11.0167 10.925 11.1667 10.6127 11.4 10.338C11.6333 10.0633 11.8833 9.80066 12.15 9.55C12.5333 9.18333 12.8627 8.78333 13.138 8.35C13.4133 7.91666 13.5507 7.43333 13.55 6.9C13.55 6.05 13.2043 5.35433 12.513 4.813C11.8217 4.27167 11.0173 4.00067 10.1 4C9.46666 4 8.86266 4.13333 8.288 4.4C7.71333 4.66667 7.27566 5.075 6.975 5.625C6.85833 5.825 6.821 6.03766 6.863 6.263C6.905 6.48833 7.01733 6.659 7.2 6.775C7.43333 6.90833 7.675 6.95 7.925 6.9C8.175 6.85 8.38333 6.70833 8.55 6.475C8.73333 6.225 8.96266 6.03333 9.23799 5.9C9.51333 5.76667 9.80066 5.7 10.1 5.7Z" fill="#FFC200"/>
</svg>
